<svg xmlns="http://www.w3.org/2000/svg" width="1024" height="1024" viewBox="0 0 1024 1024">
<g>
<path d="M 485.87,231.16 L 489.06,231.28 L 494.96,231.70 L 497.84,231.95 L 503.28,232.68 L 505.95,233.09 L 511.12,234.17 L 513.68,234.75 L 518.77,236.22 L 521.32,237.01 L 526.52,238.92 L 529.16,239.93 L 534.67,242.32 L 543.50,246.49 L 547.41,248.43 L 554.65,252.51 L 558.19,254.59 L 564.84,259.09 L 568.11,261.40 L 574.38,266.46 L 583.61,274.86 L 586.81,277.99 L 592.80,284.53 L 595.74,287.85 L 601.21,294.76 L 603.88,298.26 L 608.82,305.53 L 611.23,309.21 L 615.63,316.83 L 617.76,320.67 L 621.61,328.62 L 623.47,332.63 L 626.77,340.89 L 628.35,345.06 L 631.09,353.63 L 634.56,366.81 L 635.05,369.00 L 635.81,372.65 L 636.14,374.36 L 636.56,377.07 L 636.73,378.30 L 636.82,380.09 L 636.82,380.86 L 636.56,381.74 L 636.38,382.07 L 635.76,382.05 L 635.40,381.94 L 634.41,381.05 L 633.87,380.50 L 632.50,378.76 L 630.01,375.22 L 629.25,374.07 L 627.17,371.39 L 626.06,370.00 L 623.41,366.94 L 622.03,365.38 L 618.95,362.10 L 617.37,360.45 L 614.01,357.10 L 610.61,353.75 L 603.61,347.44 L 601.89,345.95 L 598.60,343.24 L 594.00,339.75 L 591.81,338.19 L 587.17,335.20 L 584.82,333.73 L 579.91,330.94 L 577.43,329.58 L 572.30,327.01 L 569.72,325.75 L 564.43,323.43 L 561.77,322.31 L 556.37,320.26 L 553.67,319.27 L 548.23,317.51 L 545.51,316.67 L 540.07,315.24 L 532.00,313.47 L 530.40,313.17 L 526.79,312.68 L 524.93,312.45 L 520.90,312.11 L 516.80,311.80 L 507.98,311.65 L 503.55,311.64 L 494.94,312.08 L 492.85,312.23 L 488.91,312.64 L 483.50,313.42 L 480.14,314.02 L 473.51,315.55 L 470.21,316.37 L 463.73,318.34 L 460.51,319.38 L 454.19,321.77 L 451.05,323.01 L 444.90,325.81 L 441.85,327.26 L 435.90,330.46 L 432.94,332.11 L 427.19,335.70 L 424.35,337.54 L 418.82,341.50 L 416.08,343.52 L 410.79,347.84 L 408.17,350.04 L 403.12,354.71 L 400.63,357.09 L 395.85,362.09 L 393.50,364.63 L 389.00,369.96 L 386.78,372.66 L 382.58,378.30 L 380.51,381.16 L 376.62,387.09 L 374.71,390.10 L 371.13,396.32 L 369.39,399.47 L 366.16,405.96 L 361.70,416.00 L 360.09,419.94 L 357.22,428.22 L 356.55,430.27 L 355.35,434.26 L 354.77,436.22 L 353.80,439.90 L 353.34,441.69 L 352.64,444.91 L 352.32,446.45 L 351.93,449.04 L 351.78,450.25 L 351.74,452.04 L 351.76,452.43 L 351.86,453.04 L 352.13,453.66 L 352.19,453.72 L 352.85,453.84 L 353.29,453.90 L 354.79,454.00 L 355.65,454.05 L 358.08,454.15 L 359.41,454.19 L 362.85,454.28 L 363.78,454.30 L 365.84,454.34 L 366.90,454.36 L 369.24,454.39 L 370.45,454.41 L 373.09,454.44 L 374.45,454.46 L 377.39,454.49 L 378.90,454.51 L 382.16,454.54 L 383.84,454.55 L 387.43,454.58 L 389.26,454.59 L 393.19,454.62 L 395.20,454.63 L 399.48,454.65 L 401.67,454.66 L 406.31,454.68 L 408.68,454.69 L 413.69,454.71 L 416.25,454.72 L 421.65,454.74 L 424.40,454.75 L 430.20,454.76 L 433.15,454.77 L 439.35,454.78 L 442.51,454.79 L 449.13,454.80 L 452.49,454.81 L 459.54,454.82 L 463.12,454.82 L 470.61,454.83 L 474.42,454.83 L 482.36,454.84 L 486.39,454.84 L 494.80,454.85 L 499.06,454.85 L 507.94,454.85 L 512.44,454.85 L 521.80,454.86 L 526.55,454.86 L 536.41,454.86 L 541.40,454.86 L 551.77,454.86 L 557.02,454.86 L 567.91,454.85 L 584.84,454.85 L 591.45,454.85 L 604.11,454.84 L 610.36,454.84 L 622.30,454.84 L 628.19,454.84 L 639.44,454.84 L 644.99,454.84 L 655.56,454.84 L 660.77,454.84 L 670.70,454.84 L 675.58,454.84 L 684.88,454.84 L 689.45,454.84 L 698.14,454.85 L 702.41,454.85 L 710.51,454.86 L 714.49,454.86 L 722.03,454.87 L 725.73,454.87 L 732.72,454.88 L 736.15,454.89 L 742.62,454.90 L 745.79,454.91 L 751.76,454.92 L 754.69,454.93 L 760.18,454.95 L 762.87,454.96 L 767.90,454.98 L 770.36,454.99 L 774.96,455.01 L 777.21,455.03 L 781.40,455.05 L 783.44,455.07 L 787.24,455.09 L 789.09,455.11 L 792.51,455.14 L 794.18,455.16 L 797.26,455.19 L 798.76,455.21 L 801.51,455.25 L 802.84,455.27 L 805.29,455.32 L 806.48,455.34 L 808.64,455.39 L 810.74,455.43 L 814.17,455.54 L 815.78,455.60 L 818.36,455.72 L 819.57,455.79 L 821.47,455.93 L 822.36,456.01 L 823.77,456.17 L 825.50,456.44 L 829.57,457.18 L 837.61,459.25 L 841.62,460.38 L 849.50,463.18 L 853.41,464.66 L 861.10,468.16 L 864.92,469.99 L 872.38,474.15 L 876.08,476.31 L 883.29,481.11 L 886.86,483.58 L 893.79,488.97 L 897.21,491.74 L 903.83,497.70 L 907.09,500.75 L 913.36,507.25 L 916.45,510.56 L 922.34,517.56 L 925.24,521.12 L 930.73,528.59 L 933.42,532.38 L 938.47,540.29 L 940.94,544.29 L 945.53,552.60 L 947.76,556.81 L 951.85,565.49 L 953.84,569.88 L 957.40,578.90 L 959.12,583.46 L 962.13,592.79 L 965.98,607.10 L 966.80,610.59 L 968.14,617.99 L 968.76,621.74 L 969.70,629.54 L 970.12,633.47 L 970.66,641.53 L 970.88,645.57 L 971.01,653.74 L 971.03,657.82 L 970.76,665.94 L 970.57,669.99 L 969.90,677.92 L 969.51,681.85 L 968.43,689.45 L 966.36,700.31 L 965.34,704.82 L 962.57,713.61 L 961.08,717.96 L 957.43,726.37 L 955.50,730.51 L 951.04,738.43 L 948.72,742.31 L 943.52,749.64 L 940.84,753.23 L 934.99,759.87 L 931.99,763.10 L 925.55,768.95 L 922.26,771.78 L 915.31,776.75 L 913.54,777.93 L 909.93,780.11 L 904.39,783.10 L 902.43,784.07 L 898.92,785.72 L 897.22,786.51 L 894.07,787.81 L 892.52,788.42 L 889.53,789.41 L 888.04,789.87 L 885.00,790.60 L 883.46,790.94 L 880.19,791.44 L 878.50,791.67 L 874.78,792.00 L 872.85,792.15 L 868.48,792.35 L 861.00,792.54 L 858.46,792.58 L 853.34,792.59 L 850.83,792.59 L 846.17,792.51 L 845.06,792.48 L 843.02,792.42 L 842.03,792.38 L 840.29,792.30 L 839.46,792.26 L 838.08,792.16 L 837.45,792.10 L 836.50,791.99 L 833.65,791.58 L 827.71,790.27 L 824.72,789.53 L 818.57,787.60 L 815.48,786.56 L 809.20,784.06 L 806.06,782.74 L 799.75,779.71 L 796.59,778.13 L 790.34,774.62 L 787.22,772.80 L 781.11,768.85 L 778.08,766.83 L 772.20,762.48 L 763.75,755.58 L 761.62,753.72 L 757.46,749.81 L 755.40,747.82 L 751.37,743.68 L 747.38,739.48 L 739.85,730.44 L 736.16,725.82 L 729.29,716.06 L 725.94,711.10 L 719.81,700.74 L 716.85,695.50 L 711.54,684.70 L 708.99,679.25 L 704.57,668.12 L 702.48,662.53 L 699.03,651.21 L 698.23,648.38 L 696.83,642.70 L 695.03,634.18 L 694.61,631.94 L 693.89,627.79 L 693.55,625.76 L 692.97,621.93 L 692.42,618.17 L 691.72,611.02 L 691.42,607.42 L 691.15,599.77 L 691.11,597.78 L 691.09,593.49 L 691.14,586.50 L 691.15,585.24 L 691.18,582.94 L 691.20,581.83 L 691.21,579.81 L 691.23,577.85 L 691.20,574.65 L 691.18,573.15 L 691.05,570.75 L 690.97,569.64 L 690.71,567.86 L 690.56,567.04 L 690.13,565.71 L 689.90,565.08 L 689.27,564.02 L 688.93,563.51 L 688.08,562.54 L 686.51,561.00 L 683.84,558.50 L 373.67,558.00 L 63.50,557.50 L 60.00,555.32 L 59.10,554.76 L 57.63,553.81 L 56.95,553.32 L 55.87,552.18 L 55.37,551.55 L 54.62,549.79 L 54.45,549.29 L 54.16,548.10 L 54.03,547.47 L 53.80,545.96 L 53.70,545.17 L 53.52,543.30 L 53.44,542.32 L 53.32,540.03 L 53.26,538.83 L 53.17,536.07 L 53.14,534.63 L 53.08,531.34 L 53.06,529.62 L 53.03,525.75 L 53.02,523.73 L 53.01,519.22 L 53.00,516.87 L 53.00,511.66 L 53.00,503.00 L 53.00,499.95 L 53.00,494.41 L 53.00,491.73 L 53.01,486.89 L 53.02,484.55 L 53.04,480.36 L 53.05,478.34 L 53.10,474.74 L 53.12,473.01 L 53.19,469.95 L 53.23,468.49 L 53.33,465.93 L 53.38,464.70 L 53.52,462.59 L 53.60,461.58 L 53.78,459.85 L 53.88,459.03 L 54.11,457.64 L 54.23,456.98 L 54.52,455.88 L 54.83,454.84 L 55.63,453.42 L 56.07,452.78 L 57.17,451.83 L 59.23,450.52 L 59.86,450.15 L 61.47,449.56 L 62.36,449.29 L 64.80,448.86 L 65.49,448.76 L 67.10,448.58 L 67.94,448.50 L 69.91,448.34 L 70.95,448.26 L 73.34,448.10 L 77.46,447.88 L 80.61,447.72 L 87.17,447.25 L 90.48,446.98 L 97.28,446.32 L 104.11,445.62 L 117.90,443.72 L 121.31,443.21 L 128.00,442.10 L 131.31,441.54 L 137.69,440.32 L 140.82,439.70 L 146.76,438.39 L 155.00,436.36 L 158.31,435.47 L 164.67,433.48 L 167.85,432.43 L 174.34,429.94 L 175.99,429.28 L 179.42,427.83 L 181.16,427.09 L 184.79,425.44 L 186.64,424.59 L 190.56,422.73 L 196.81,419.66 L 200.43,417.85 L 207.19,414.25 L 210.50,412.44 L 216.74,408.78 L 219.80,406.92 L 225.66,403.08 L 228.55,401.13 L 234.16,397.01 L 236.94,394.90 L 242.45,390.39 L 245.20,388.08 L 250.75,383.07 L 253.54,380.50 L 259.26,374.90 L 268.20,365.71 L 271.59,362.11 L 278.75,354.65 L 282.38,350.89 L 289.79,343.30 L 293.51,339.50 L 300.93,332.03 L 304.61,328.33 L 311.76,321.23 L 315.28,317.75 L 321.91,311.29 L 323.53,309.72 L 326.61,306.76 L 328.12,305.30 L 330.99,302.58 L 332.39,301.26 L 335.00,298.82 L 336.27,297.63 L 338.60,295.50 L 339.72,294.48 L 341.73,292.69 L 344.36,290.43 L 345.99,289.07 L 349.37,286.24 L 351.05,284.83 L 354.24,282.16 L 355.78,280.87 L 358.42,278.66 L 359.03,278.15 L 360.08,277.27 L 361.36,276.21 L 361.92,275.74 L 363.27,274.67 L 363.98,274.12 L 365.57,272.92 L 367.23,271.68 L 371.14,268.90 L 373.17,267.47 L 377.60,264.44 L 379.86,262.91 L 384.54,259.83 L 386.88,258.30 L 391.50,255.35 L 393.78,253.91 L 398.05,251.30 L 400.12,250.05 L 403.75,247.95 L 404.61,247.47 L 406.15,246.64 L 408.16,245.61 L 411.14,244.16 L 417.72,241.41 L 421.06,240.07 L 427.98,237.65 L 431.43,236.50 L 438.14,234.61 L 439.78,234.18 L 442.92,233.44 L 447.38,232.55 L 448.87,232.29 L 452.49,231.87 L 454.40,231.67 L 458.89,231.38 L 461.24,231.26 L 466.62,231.10 L 475.72,231.00 L 479.31,231.00 M 487.37,661.45 L 485.88,669.30 L 485.52,671.20 L 484.84,674.79 L 484.51,676.53 L 483.91,679.73 L 483.62,681.27 L 483.13,683.94 L 482.89,685.21 L 482.52,687.25 L 482.36,688.18 L 482.14,689.47 L 482.00,690.41 L 482.14,689.28 L 482.36,687.88 L 482.53,686.91 L 482.91,684.78 L 483.15,683.48 L 483.66,680.73 L 483.95,679.17 L 484.56,675.92 L 484.90,674.16 L 485.59,670.53 L 485.96,668.62 L 487.49,660.74 L 488.06,657.85 M 501.67,647.90 L 500.89,643.82 L 500.52,641.83 L 499.82,638.15 L 499.48,636.37 L 498.88,633.19 L 498.59,631.68 L 498.10,629.09 L 497.88,627.88 L 497.52,625.97 L 497.36,625.11 L 497.15,623.98 L 497.01,623.25 L 497.00,623.02 L 496.69,622.89 L 496.50,622.86 L 495.99,623.06 L 495.73,623.19 L 495.22,623.62 L 495.15,623.71 L 495.65,621.88 L 495.66,620.50 L 495.49,619.96 L 495.35,618.56 L 495.63,618.00 L 495.93,618.00 L 496.35,618.22 L 496.59,618.56 L 496.69,618.81 L 497.01,619.99 L 497.01,620.75 L 497.15,621.98 L 497.36,623.43 L 497.52,624.44 L 497.88,626.64 L 498.10,627.98 L 498.59,630.83 L 498.88,632.46 L 499.48,635.85 L 499.82,637.72 L 500.52,641.56 L 500.89,643.62 L 501.67,647.82 L 502.08,650.01 L 502.91,654.46 L 502.08,650.06 Z" fill="rgba(23,120,178,1)"/>
<path d="M 94.20,778.80 L 94.00,778.60 L 93.68,777.56 L 93.53,776.93 L 93.30,775.05 L 93.20,774.00 L 93.08,771.29 L 93.00,766.30 L 93.00,765.13 L 93.01,763.12 L 93.02,762.17 L 93.06,760.58 L 93.08,759.83 L 93.15,758.60 L 93.18,758.03 L 93.28,757.13 L 93.34,756.72 L 93.48,756.10 L 93.55,755.83 L 93.74,755.45 L 94.50,755.00 L 94.81,755.00 L 95.26,755.42 L 95.45,755.72 L 95.71,756.97 L 95.77,757.35 L 95.85,758.31 L 95.89,758.83 L 95.94,760.11 L 95.96,760.79 L 95.99,762.42 L 96.00,765.30 L 96.00,766.63 L 96.04,768.90 L 96.06,769.98 L 96.16,771.78 L 96.22,772.62 L 96.40,774.00 L 96.51,774.64 L 96.79,775.64 L 96.94,776.10 L 97.33,776.79 L 97.55,777.10 L 98.07,777.51 L 100.23,778.00 L 100.84,778.00 L 101.68,777.69 L 101.86,777.55 L 102.16,777.12 L 102.30,776.86 L 102.51,776.12 L 102.61,775.70 L 102.76,774.58 L 102.84,773.96 L 102.95,772.37 L 103.00,771.51 L 103.09,769.38 L 103.21,765.50 L 103.24,764.49 L 103.31,762.75 L 103.34,761.92 L 103.42,760.52 L 103.46,759.86 L 103.56,758.78 L 103.61,758.27 L 103.74,757.46 L 103.87,756.72 L 104.24,755.92 L 105.00,755.50 L 105.30,755.50 L 105.76,755.92 L 105.96,756.22 L 106.26,757.44 L 106.33,757.81 L 106.44,758.74 L 106.49,759.24 L 106.58,760.46 L 106.62,761.11 L 106.69,762.65 L 106.79,765.37 L 106.83,766.92 L 106.85,769.55 L 106.84,770.80 L 106.73,772.88 L 106.65,773.85 L 106.38,775.44 L 106.22,776.18 L 105.76,777.33 L 105.50,777.86 L 104.83,778.64 L 104.46,778.98 L 103.53,779.46 L 103.03,779.66 L 101.83,779.88 L 99.68,780.00 L 98.50,780.00 L 96.30,779.65 L 95.81,779.54 L 95.00,779.27 L 94.64,779.12 M 112.00,767.43 L 112.00,765.87 L 112.01,763.32 L 112.01,762.12 L 112.04,760.22 L 112.06,759.34 L 112.12,758.00 L 112.16,757.39 L 112.29,756.52 L 112.36,756.13 L 112.56,755.63 L 112.67,755.42 L 112.96,755.21 L 114.24,755.18 L 114.69,755.24 L 115.48,755.68 L 115.87,755.97 L 116.63,756.99 L 117.01,757.60 L 117.87,759.42 L 118.10,759.93 L 118.59,761.14 L 119.41,763.25 L 119.81,764.32 L 120.59,766.21 L 120.97,767.11 L 121.65,768.55 L 121.96,769.20 L 122.46,770.03 L 122.92,770.41 L 123.00,770.33 L 123.14,769.62 L 123.21,769.18 L 123.33,767.89 L 123.38,767.19 L 123.45,765.49 L 123.50,762.66 L 123.50,761.24 L 123.57,759.14 L 123.61,758.20 L 123.80,756.94 L 123.92,756.40 L 124.26,755.82 L 125.00,755.50 L 125.31,755.50 L 125.76,755.97 L 125.86,756.14 L 126.02,756.66 L 126.10,756.95 L 126.22,757.75 L 126.27,758.19 L 126.35,759.31 L 126.39,759.91 L 126.44,761.41 L 126.46,762.20 L 126.49,764.11 L 126.50,767.50 L 126.50,768.88 L 126.49,771.18 L 126.48,772.27 L 126.45,774.03 L 126.43,774.85 L 126.36,776.15 L 126.32,776.74 L 126.21,777.64 L 126.15,778.04 L 125.98,778.61 L 125.89,778.86 L 125.65,779.18 L 124.64,779.50 L 124.29,779.50 L 123.61,779.11 L 123.26,778.85 L 122.53,777.85 L 122.16,777.26 L 121.30,775.53 L 119.81,772.00 L 119.41,770.97 L 118.59,769.01 L 118.19,768.07 L 117.45,766.42 L 117.10,765.66 L 116.52,764.51 L 115.93,763.55 L 115.78,763.40 L 115.54,763.76 L 115.43,764.04 L 115.25,765.20 L 115.17,765.87 L 115.06,767.75 L 115.00,771.30 L 115.00,772.18 L 114.99,773.70 L 114.98,774.42 L 114.94,775.64 L 114.89,776.79 L 114.71,778.30 L 114.60,778.95 L 114.25,779.63 L 113.50,780.00 L 113.19,780.00 L 112.74,779.51 L 112.64,779.33 L 112.47,778.79 L 112.40,778.49 L 112.28,777.66 L 112.23,777.20 L 112.14,776.02 L 112.11,775.39 L 112.06,773.83 L 112.04,772.99 L 112.01,770.99 L 112.00,769.93 M 132.00,767.57 L 132.00,766.26 L 132.01,764.02 L 132.02,762.95 L 132.06,761.17 L 132.08,760.34 L 132.14,758.98 L 132.18,758.34 L 132.28,757.35 L 132.33,756.89 L 132.47,756.21 L 132.55,755.90 L 132.74,755.49 L 133.50,755.00 L 133.81,755.00 L 134.26,755.45 L 134.36,755.62 L 134.52,756.12 L 134.60,756.40 L 134.72,757.17 L 134.77,757.59 L 134.85,758.66 L 134.89,759.24 L 134.94,760.67 L 134.96,761.43 L 134.99,763.26 L 135.00,766.50 L 135.00,768.08 L 135.00,771.02 L 135.01,772.44 L 135.02,774.84 L 135.02,775.95 L 135.03,777.55 L 135.04,777.89 L 135.04,778.36 L 135.05,778.75 L 135.07,778.96 L 134.63,779.37 L 133.55,779.82 L 133.22,779.89 L 132.75,779.55 L 132.64,779.41 L 132.47,778.93 L 132.40,778.65 L 132.27,777.87 L 132.22,777.43 L 132.14,776.29 L 132.10,775.66 L 132.05,774.10 L 132.03,773.26 L 132.01,771.22 L 132.00,770.14 M 141.56,777.78 L 141.28,777.38 L 140.85,776.30 L 140.65,775.70 L 140.36,774.14 L 140.24,773.29 L 140.09,771.17 L 140.00,767.28 L 140.00,766.39 L 140.02,764.87 L 140.03,764.14 L 140.08,762.92 L 140.13,761.75 L 140.38,760.10 L 140.53,759.36 L 141.02,758.28 L 142.12,756.88 L 142.54,756.46 L 143.34,755.86 L 143.74,755.60 L 144.61,755.30 L 145.07,755.18 L 146.17,755.13 L 148.24,755.30 L 149.34,755.45 L 151.40,756.02 L 151.86,756.17 L 152.62,756.49 L 153.37,756.97 L 153.53,757.13 L 153.84,758.08 L 153.99,758.64 L 154.27,760.26 L 154.41,761.12 L 154.63,763.19 L 154.85,766.57 L 154.91,767.94 L 154.93,770.30 L 154.93,771.41 L 154.81,773.30 L 154.73,774.18 L 154.44,775.64 L 154.27,776.32 L 153.78,777.40 L 153.51,777.90 L 152.80,778.64 L 152.42,778.98 L 151.46,779.45 L 150.95,779.65 L 149.72,779.87 L 147.53,780.00 L 146.68,780.00 L 145.32,779.90 L 144.69,779.82 L 143.71,779.54 L 143.25,779.37 L 142.52,778.85 L 142.17,778.56 M 150.53,775.74 L 150.61,775.43 L 150.73,774.27 L 150.78,773.62 L 150.84,771.94 L 150.80,765.99 L 150.50,758.50 L 147.50,758.50 L 144.50,758.50 L 144.21,767.42 L 144.17,768.57 L 144.14,770.52 L 144.13,771.43 L 144.17,772.95 L 144.20,773.66 L 144.34,774.80 L 144.42,775.33 L 144.67,776.14 L 144.81,776.52 L 145.20,777.06 L 145.41,777.30 L 145.95,777.62 L 148.23,777.98 L 148.72,777.99 L 149.63,777.34 L 150.04,776.94 M 159.73,774.75 L 159.51,772.36 L 159.41,767.32 L 159.42,765.97 L 159.52,762.94 L 159.81,757.68 L 159.85,757.11 L 160.00,756.28 L 160.09,755.92 L 160.39,755.47 L 160.57,755.29 L 161.10,755.14 L 162.22,755.18 L 162.66,755.24 L 163.44,755.68 L 163.82,755.97 L 164.58,757.01 L 164.96,757.62 L 165.82,759.44 L 166.05,759.95 L 166.54,761.15 L 167.35,763.25 L 167.75,764.32 L 168.54,766.26 L 168.93,767.19 L 169.63,768.72 L 169.97,769.43 L 170.51,770.39 L 171.04,771.00 L 171.14,771.00 L 171.33,770.39 L 171.41,769.99 L 171.54,768.72 L 171.60,768.02 L 171.66,766.26 L 171.66,763.25 L 171.64,762.46 L 171.63,761.11 L 171.62,760.47 L 171.64,759.38 L 171.67,758.36 L 171.82,757.02 L 171.92,756.44 L 172.26,755.83 L 173.00,755.50 L 173.31,755.50 L 173.76,755.96 L 173.86,756.13 L 174.01,756.64 L 174.08,756.93 L 174.19,757.72 L 174.24,758.16 L 174.30,759.27 L 174.33,759.88 L 174.35,761.37 L 174.36,762.17 L 174.36,764.09 L 174.32,767.50 L 174.30,768.84 L 174.26,771.10 L 174.23,772.16 L 174.17,773.91 L 174.14,774.72 L 174.05,776.02 L 174.00,776.62 L 173.88,777.53 L 173.81,777.94 L 173.64,778.54 L 173.55,778.80 L 173.32,779.14 L 172.37,779.50 L 172.05,779.50 L 171.38,779.07 L 171.04,778.78 L 170.28,777.70 L 169.88,777.08 L 168.99,775.29 L 167.44,771.72 L 167.00,770.65 L 166.16,768.65 L 165.75,767.69 L 165.02,766.04 L 164.67,765.28 L 164.13,764.16 L 163.64,763.30 L 163.55,763.22 L 163.39,763.74 L 163.31,764.10 L 163.19,765.40 L 163.13,766.13 L 163.05,768.02 L 163.00,771.33 L 163.00,772.17 L 162.98,773.63 L 162.97,774.33 L 162.93,775.52 L 162.89,776.65 L 162.71,778.19 L 162.60,778.85 L 162.28,779.59 L 161.62,780.00 L 161.38,780.00 L 160.97,779.68 L 160.78,779.47 L 160.45,778.71 L 160.29,778.28 L 160.04,777.07 L 159.92,776.42 M 188.43,778.69 L 188.40,778.60 L 188.34,778.20 L 188.31,777.97 L 188.26,777.31 L 188.21,776.60 L 188.16,774.55 L 188.14,773.44 L 188.14,770.79 L 188.21,766.44 L 188.50,755.50 L 191.48,755.16 L 192.66,755.03 L 195.08,755.21 L 196.27,755.37 L 198.44,756.04 L 199.46,756.43 L 201.04,757.45 L 201.39,757.73 L 201.90,758.32 L 202.37,759.26 L 202.45,759.56 L 202.61,760.68 L 202.68,761.31 L 202.80,762.91 L 202.99,768.53 L 202.99,769.73 L 202.92,771.79 L 202.87,772.76 L 202.67,774.39 L 202.55,775.15 L 202.19,776.40 L 201.98,776.97 L 201.42,777.88 L 201.11,778.30 L 200.31,778.91 L 199.87,779.19 L 198.80,779.56 L 198.23,779.72 L 196.86,779.90 L 194.41,780.00 L 193.51,780.00 L 192.01,779.92 L 191.30,779.86 L 190.20,779.67 L 189.70,779.56 L 189.00,779.26 L 188.71,779.09 M 197.92,776.60 L 198.10,776.37 L 198.39,775.44 L 198.52,774.90 L 198.70,773.37 L 198.78,772.54 L 198.84,770.48 L 198.79,766.85 L 198.50,758.50 L 195.25,758.19 L 192.00,757.87 L 192.00,767.27 L 192.00,768.56 L 192.05,770.97 L 192.09,772.13 L 192.20,774.10 L 192.26,775.01 L 192.41,776.33 L 192.67,777.33 L 192.95,777.62 L 193.80,777.91 L 194.25,778.00 L 195.26,777.94 L 195.77,777.87 L 196.74,777.49 L 197.20,777.27 M 208.00,767.45 L 208.00,754.90 L 214.25,755.20 L 215.15,755.25 L 216.64,755.39 L 217.34,755.48 L 218.43,755.69 L 218.92,755.80 L 219.59,756.06 L 219.87,756.19 L 220.12,756.46 L 220.18,756.60 L 219.99,756.87 L 219.83,757.00 L 219.19,757.25 L 218.81,757.37 L 217.70,757.58 L 215.52,757.80 L 211.00,758.11 L 211.00,762.05 L 211.00,763.04 L 211.06,764.33 L 211.13,764.89 L 211.50,765.50 L 211.75,765.75 L 212.69,765.94 L 215.00,766.00 L 215.72,766.00 L 216.84,766.08 L 217.35,766.14 L 218.08,766.34 L 218.40,766.46 L 218.78,766.81 L 219.00,767.50 L 219.00,767.77 L 218.78,768.19 L 218.63,768.38 L 218.07,768.66 L 217.75,768.78 L 216.82,768.92 L 214.94,769.00 L 210.89,769.00 L 211.19,773.25 L 211.50,777.50 L 216.25,777.80 L 217.14,777.86 L 218.52,778.03 L 219.15,778.12 L 220.03,778.34 L 220.40,778.45 L 220.79,778.70 L 220.93,778.82 L 220.84,779.07 L 220.75,779.20 L 220.21,779.43 L 219.89,779.54 L 218.93,779.72 L 218.39,779.81 L 217.01,779.92 L 214.50,780.00 L 208.00,780.00 L 208.00,767.45 M 234.22,767.83 L 234.25,766.29 L 234.32,763.76 L 234.35,762.58 L 234.42,760.70 L 234.46,759.84 L 234.56,758.51 L 234.62,757.91 L 234.77,757.04 L 234.85,756.66 L 235.08,756.15 L 235.20,755.94 L 235.52,755.69 L 236.94,755.50 L 237.59,755.50 L 238.51,755.74 L 238.72,755.84 L 239.09,756.22 L 239.26,756.44 L 239.59,757.11 L 239.75,757.48 L 240.08,758.53 L 240.25,759.11 L 240.61,760.61 L 240.80,761.43 L 241.23,763.48 L 241.99,767.25 L 242.15,768.04 L 242.50,769.48 L 242.68,770.17 L 243.05,771.31 L 243.23,771.83 L 243.57,772.55 L 243.99,773.00 L 244.10,773.00 L 244.45,772.37 L 244.64,771.96 L 245.09,770.65 L 245.32,769.93 L 245.82,768.11 L 246.56,765.00 L 246.78,763.98 L 247.22,762.19 L 247.43,761.34 L 247.86,759.89 L 248.08,759.20 L 248.52,758.07 L 248.74,757.55 L 249.20,756.72 L 249.43,756.34 L 249.92,755.80 L 250.17,755.56 L 250.69,755.28 L 252.49,755.36 L 252.80,755.48 L 253.24,756.15 L 253.34,756.37 L 253.51,756.97 L 253.59,757.31 L 253.71,758.17 L 253.76,758.64 L 253.85,759.81 L 253.88,760.44 L 253.94,761.96 L 253.96,762.77 L 253.99,764.68 L 254.00,768.04 L 254.00,769.42 L 253.99,771.72 L 253.98,772.80 L 253.95,774.56 L 253.93,775.38 L 253.87,776.68 L 253.83,777.27 L 253.72,778.16 L 253.66,778.56 L 253.50,779.12 L 253.42,779.36 L 253.19,779.64 L 252.25,779.80 L 251.65,779.68 L 251.00,778.96 L 250.84,777.07 L 250.89,776.74 L 250.92,775.78 L 250.92,775.27 L 250.88,774.05 L 250.50,770.13 L 250.40,769.47 L 250.20,768.44 L 250.09,767.98 L 249.88,767.35 L 249.78,767.09 L 249.55,766.88 L 249.43,766.83 L 249.17,767.04 L 249.04,767.20 L 248.75,767.84 L 248.60,768.21 L 248.27,769.30 L 248.10,769.90 L 247.72,771.43 L 247.09,774.25 L 246.85,775.37 L 246.40,777.04 L 246.18,777.79 L 245.73,778.80 L 245.49,779.24 L 244.96,779.73 L 244.01,780.00 L 243.65,780.00 L 243.04,779.70 L 242.75,779.49 L 242.23,778.65 L 241.98,778.15 L 241.47,776.61 L 240.65,773.37 L 240.37,772.13 L 239.84,770.08 L 239.58,769.13 L 239.10,767.67 L 238.87,767.02 L 238.46,766.15 L 238.26,765.79 L 237.92,765.52 L 237.76,765.46 L 237.50,765.78 L 237.38,766.02 L 237.22,766.95 L 237.15,767.49 L 237.08,769.02 L 237.10,772.00 L 237.13,772.80 L 237.16,774.16 L 237.17,774.80 L 237.16,775.87 L 237.15,776.89 L 236.99,778.20 L 236.88,778.76 L 236.50,779.38 L 235.64,779.83 L 235.25,779.90 L 234.73,779.65 L 234.62,779.53 L 234.45,779.10 L 234.37,778.86 L 234.26,778.12 L 234.21,777.71 L 234.15,776.61 L 234.13,776.00 L 234.12,774.45 L 234.12,773.62 L 234.14,771.56 L 234.16,770.46 M 260.49,777.62 L 260.21,777.20 L 259.79,775.71 L 259.59,774.87 L 259.32,772.75 L 259.21,771.64 L 259.09,769.15 L 259.05,767.89 L 259.07,765.30 L 259.10,764.03 L 259.26,761.62 L 259.36,760.46 L 259.65,758.49 L 259.82,757.58 L 260.24,756.31 L 260.35,756.05 L 260.60,755.71 L 261.00,755.50 L 261.30,755.50 L 261.77,755.97 L 261.98,756.30 L 262.30,757.66 L 262.38,758.07 L 262.51,759.11 L 262.57,759.67 L 262.69,761.03 L 262.74,761.75 L 262.85,763.47 L 263.00,766.49 L 263.05,767.68 L 263.16,769.71 L 263.21,770.66 L 263.32,772.25 L 263.38,772.99 L 263.51,774.19 L 263.57,774.75 L 263.73,775.63 L 263.89,776.43 L 264.34,777.27 L 265.30,777.82 L 265.78,777.91 L 266.60,777.95 L 267.00,777.93 L 267.66,777.72 L 267.97,777.58 L 268.48,777.09 L 268.71,776.80 L 269.09,775.97 L 269.27,775.51 L 269.53,774.31 L 269.64,773.65 L 269.81,772.03 L 269.88,771.16 L 269.96,769.08 L 270.00,765.38 L 270.00,764.31 L 270.01,762.47 L 270.02,761.61 L 270.06,760.15 L 270.08,759.46 L 270.15,758.33 L 270.19,757.81 L 270.29,756.98 L 270.40,756.22 L 270.74,755.42 L 271.50,755.00 L 271.81,755.00 L 272.26,755.44 L 272.46,755.75 L 272.72,757.07 L 272.77,757.47 L 272.85,758.49 L 272.89,759.05 L 272.94,760.40 L 272.96,761.13 L 272.99,762.86 L 273.00,765.93 L 273.00,767.50 L 272.96,770.14 L 272.92,771.39 L 272.78,773.43 L 272.70,774.39 L 272.43,775.91 L 272.28,776.61 L 271.84,777.68 L 271.59,778.17 L 270.95,778.86 L 270.60,779.17 L 269.71,779.57 L 269.23,779.74 L 268.06,779.91 L 265.95,780.00 L 265.20,780.00 L 264.00,779.89 L 263.44,779.81 L 262.54,779.50 L 262.12,779.31 L 261.42,778.76 L 261.09,778.46 M 279.57,778.43 L 279.10,777.96 L 278.48,776.79 L 278.22,776.19 L 278.05,775.01 L 278.01,774.45 L 278.30,773.58 L 279.26,773.00 L 279.61,773.00 L 280.44,773.66 L 281.51,775.25 L 281.88,776.08 L 283.05,777.08 L 283.68,777.48 L 285.05,777.62 L 285.72,777.59 L 286.85,776.90 L 287.10,776.67 L 287.47,776.07 L 287.80,774.95 L 287.86,774.44 L 287.71,773.50 L 287.59,773.03 L 287.00,772.05 L 286.64,771.53 L 285.50,770.33 L 283.05,768.14 L 282.07,767.31 L 280.61,765.94 L 279.95,765.29 L 279.06,764.17 L 278.67,763.62 L 278.24,762.59 L 278.00,761.00 L 278.00,760.31 L 278.35,759.09 L 278.57,758.50 L 279.30,757.49 L 279.71,757.02 L 280.73,756.25 L 281.26,755.91 L 282.48,755.43 L 283.11,755.22 L 284.43,755.05 L 285.10,755.00 L 286.43,755.16 L 287.10,755.29 L 288.36,755.82 L 290.06,757.06 L 290.60,757.60 L 291.28,758.61 L 291.55,759.10 L 291.70,759.97 L 291.70,760.38 L 291.31,761.06 L 290.12,761.79 L 289.78,761.91 L 289.07,761.47 L 288.32,760.11 L 288.22,759.73 L 287.91,759.14 L 287.73,758.87 L 287.25,758.49 L 286.98,758.32 L 286.29,758.12 L 284.99,758.00 L 284.30,758.00 L 283.22,758.23 L 282.73,758.38 L 282.04,758.87 L 281.74,759.15 L 281.43,759.85 L 281.32,760.22 L 281.38,761.08 L 281.45,761.52 L 281.87,762.48 L 282.12,762.97 L 282.90,763.99 L 283.33,764.50 L 284.44,765.52 L 286.50,767.00 L 287.20,767.43 L 288.42,768.36 L 288.99,768.83 L 289.94,769.80 L 290.38,770.29 L 291.05,771.29 L 291.36,771.79 L 291.75,772.80 L 291.92,773.30 L 292.02,774.29 L 292.04,774.78 L 291.86,775.73 L 291.73,776.20 L 291.24,777.10 L 290.17,778.35 L 289.59,778.87 L 287.83,779.53 L 286.89,779.80 L 284.78,779.95 L 283.72,779.95 L 281.77,779.58 L 280.86,779.33 M 296.50,779.00 L 296.46,778.93 L 296.38,778.58 L 296.34,778.38 L 296.28,777.78 L 296.22,777.13 L 296.14,775.24 L 296.11,774.22 L 296.08,771.81 L 296.07,770.57 L 296.08,767.92 L 296.10,766.59 L 296.16,763.99 L 296.19,762.73 L 296.29,760.45 L 296.35,759.39 L 296.49,757.73 L 296.74,756.25 L 296.87,755.91 L 297.48,755.37 L 298.61,755.00 L 298.89,755.00 L 299.30,755.54 L 299.39,755.74 L 299.54,756.31 L 299.61,756.64 L 299.72,757.49 L 299.77,757.96 L 299.85,759.14 L 299.89,759.78 L 299.94,761.32 L 299.96,762.14 L 299.99,764.09 L 300.00,767.50 L 300.00,768.78 L 299.99,770.97 L 299.98,772.01 L 299.94,773.76 L 299.92,774.59 L 299.85,775.94 L 299.82,776.58 L 299.72,777.58 L 299.67,778.04 L 299.53,778.74 L 299.46,779.05 L 299.28,779.48 L 298.56,780.00 L 298.16,780.00 L 297.36,779.71 L 296.99,779.53 M 306.65,778.17 L 306.33,777.82 L 305.85,776.86 L 305.64,776.32 L 305.35,774.82 L 305.22,773.98 L 305.08,771.72 L 305.05,771.10 L 305.02,769.67 L 305.00,767.23 L 305.00,766.19 L 305.01,764.45 L 305.02,763.63 L 305.06,762.26 L 305.09,761.63 L 305.17,760.58 L 305.22,760.10 L 305.35,759.32 L 305.51,758.59 L 306.02,757.66 L 307.22,756.56 L 307.83,756.13 L 309.12,755.56 L 309.78,755.31 L 311.11,755.08 L 311.78,755.01 L 313.08,755.10 L 313.73,755.18 L 314.93,755.56 L 315.52,755.78 L 316.55,756.42 L 317.05,756.78 L 317.84,757.66 L 318.21,758.12 L 318.69,759.21 L 319.00,761.06 L 319.00,761.55 L 318.89,762.35 L 318.82,762.72 L 318.59,763.27 L 318.33,763.75 L 317.62,763.97 L 317.25,763.96 L 316.50,763.19 L 315.64,760.93 L 315.50,760.27 L 315.22,759.35 L 315.07,758.95 L 314.64,758.46 L 314.40,758.27 L 313.72,758.12 L 312.26,758.18 L 309.50,758.50 L 309.21,767.77 L 309.18,768.76 L 309.14,770.44 L 309.13,771.24 L 309.12,772.58 L 309.13,773.20 L 309.17,774.23 L 309.19,774.71 L 309.28,775.48 L 309.38,776.19 L 309.74,777.01 L 310.60,777.68 L 311.20,777.91 L 312.38,777.87 L 312.95,777.77 L 313.97,777.16 L 314.45,776.79 L 315.19,775.70 L 315.82,773.65 L 315.91,772.91 L 316.46,771.77 L 317.57,771.00 L 317.81,771.00 L 318.21,771.24 L 318.39,771.39 L 318.66,771.88 L 318.90,772.42 L 318.99,773.96 L 318.97,774.76 L 318.57,776.42 L 317.43,778.43 L 317.15,778.70 L 316.42,779.14 L 316.03,779.34 L 315.11,779.63 L 314.16,779.89 L 312.00,779.98 L 310.92,779.95 L 308.91,779.49 L 308.44,779.33 L 307.62,778.93 L 307.24,778.71 M 326.03,773.59 L 329.00,767.04 L 326.31,761.55 L 325.93,760.79 L 325.30,759.37 L 325.01,758.69 L 324.56,757.51 L 324.37,756.96 L 324.16,756.15 L 324.16,755.50 L 324.48,755.19 L 325.30,755.16 L 325.72,755.24 L 326.66,755.92 L 327.13,756.34 L 328.06,757.61 L 329.29,760.06 L 329.72,761.14 L 330.67,762.84 L 330.90,763.20 L 331.31,763.69 L 331.81,764.00 L 331.94,764.00 L 332.31,763.69 L 332.51,763.49 L 332.96,762.85 L 334.35,760.09 L 334.78,759.01 L 335.78,757.12 L 336.02,756.70 L 336.47,756.06 L 337.02,755.48 L 337.32,755.30 L 337.80,755.11 L 338.02,755.04 L 338.34,755.07 L 338.48,755.12 L 338.64,755.37 L 338.71,755.53 L 338.72,756.00 L 338.69,756.52 L 338.16,758.18 L 336.69,761.57 L 333.98,767.08 L 336.99,773.14 L 337.41,773.98 L 338.16,775.53 L 338.52,776.27 L 339.12,777.54 L 339.39,778.13 L 339.76,778.97 L 340.00,779.60 L 340.00,779.71 L 339.45,779.88 L 338.12,780.00 L 337.80,780.00 L 337.16,779.71 L 336.83,779.51 L 336.18,778.80 L 335.85,778.39 L 335.17,777.24 L 334.10,775.00 L 333.80,774.31 L 333.22,773.06 L 332.94,772.46 L 332.43,771.47 L 332.20,771.02 L 331.82,770.39 L 331.46,770.00 L 331.40,770.00 L 331.10,770.37 L 330.93,770.61 L 330.46,771.39 L 330.21,771.82 L 329.64,772.90 L 328.73,774.74 L 328.11,776.04 L 326.64,778.18 L 326.28,778.64 L 325.61,779.30 L 324.77,779.81 L 324.41,779.87 L 324.01,779.73 L 323.86,779.59 L 323.92,778.88 L 324.01,778.43 L 324.57,776.93 L 324.75,776.50 L 325.20,775.46 L 325.44,774.90 M 345.57,778.43 L 345.10,777.96 L 344.48,776.79 L 344.22,776.19 L 344.05,775.01 L 344.01,774.45 L 344.30,773.58 L 345.26,773.00 L 345.61,773.00 L 346.44,773.66 L 347.51,775.25 L 347.88,776.08 L 349.05,777.08 L 349.68,777.48 L 351.05,777.62 L 351.72,777.59 L 352.85,776.90 L 353.10,776.67 L 353.47,776.07 L 353.80,774.95 L 353.86,774.44 L 353.71,773.50 L 353.59,773.03 L 353.00,772.05 L 352.64,771.53 L 351.50,770.33 L 349.05,768.14 L 348.35,767.55 L 347.17,766.44 L 346.62,765.90 L 345.73,764.88 L 345.33,764.38 L 344.73,763.43 L 344.47,762.96 L 344.16,762.07 L 344.03,761.62 L 344.00,760.77 L 344.02,760.34 L 344.26,759.50 L 344.42,759.09 L 344.93,758.26 L 346.00,757.00 L 346.46,756.54 L 347.58,755.89 L 348.16,755.61 L 349.44,755.31 L 350.09,755.20 L 351.43,755.22 L 352.09,755.26 L 353.39,755.57 L 354.02,755.75 L 355.18,756.31 L 355.73,756.62 L 356.65,757.41 L 357.06,757.83 L 357.64,758.82 L 358.00,760.50 L 358.00,761.06 L 357.51,761.69 L 357.20,761.93 L 356.37,761.96 L 355.95,761.90 L 355.12,761.37 L 354.29,760.00 L 354.20,759.65 L 353.89,759.09 L 353.71,758.84 L 353.21,758.47 L 352.94,758.31 L 352.23,758.11 L 350.88,758.00 L 350.25,758.00 L 349.37,758.10 L 348.98,758.17 L 348.49,758.51 L 348.29,758.71 L 348.10,759.40 L 348.00,760.95 L 348.00,761.54 L 348.19,762.54 L 348.33,763.02 L 348.88,763.92 L 349.20,764.36 L 350.22,765.30 L 352.38,766.92 L 353.13,767.43 L 354.41,768.46 L 355.02,768.97 L 356.01,769.99 L 356.46,770.50 L 357.16,771.50 L 357.47,771.99 L 357.86,772.97 L 358.02,773.46 L 358.12,774.40 L 358.13,774.87 L 357.93,775.78 L 357.79,776.23 L 357.28,777.10 L 356.17,778.35 L 355.59,778.87 L 353.83,779.53 L 352.89,779.80 L 350.78,779.95 L 349.72,779.95 L 347.77,779.58 L 346.86,779.33 M 371.43,778.69 L 371.40,778.60 L 371.34,778.20 L 371.31,777.97 L 371.26,777.31 L 371.21,776.60 L 371.16,774.55 L 371.14,773.44 L 371.14,770.79 L 371.21,766.44 L 371.50,755.50 L 377.35,755.53 L 378.33,755.53 L 379.97,755.62 L 380.74,755.68 L 382.00,755.92 L 382.59,756.07 L 383.52,756.54 L 383.95,756.81 L 384.61,757.58 L 384.90,758.00 L 385.32,759.14 L 385.51,759.76 L 385.75,761.34 L 385.85,762.19 L 385.95,764.27 L 386.00,768.04 L 386.00,768.93 L 385.98,770.47 L 385.97,771.20 L 385.93,772.46 L 385.87,773.65 L 385.65,775.35 L 385.51,776.11 L 385.09,777.16 L 384.17,778.35 L 383.89,778.60 L 383.00,779.03 L 382.51,779.24 L 381.32,779.55 L 380.08,779.83 L 377.23,780.04 L 375.83,780.07 L 373.42,779.76 L 372.90,779.65 L 372.11,779.33 L 371.76,779.15 M 380.79,777.15 L 381.03,777.00 L 381.37,776.29 L 381.53,775.85 L 381.72,774.48 L 381.80,773.71 L 381.86,771.58 L 381.79,767.42 L 381.50,758.50 L 378.25,758.19 L 375.00,757.87 L 375.00,767.27 L 375.00,768.56 L 375.05,770.97 L 375.09,772.13 L 375.20,774.10 L 375.26,775.01 L 375.41,776.33 L 375.67,777.33 L 375.89,777.56 L 376.63,777.83 L 377.03,777.93 L 377.98,777.96 L 378.47,777.94 L 379.46,777.73 L 379.94,777.59 M 391.00,767.45 L 391.00,754.90 L 397.25,755.20 L 398.16,755.25 L 399.68,755.39 L 400.39,755.47 L 401.50,755.68 L 402.01,755.79 L 402.72,756.05 L 403.02,756.18 L 403.31,756.46 L 403.40,756.60 L 403.25,756.88 L 403.12,757.03 L 402.52,757.30 L 402.16,757.44 L 401.11,757.68 L 399.00,758.00 L 397.90,758.12 L 396.45,758.35 L 395.82,758.48 L 395.11,758.90 L 394.82,759.16 L 394.59,760.01 L 394.50,762.00 L 394.50,762.83 L 394.59,763.96 L 394.66,764.45 L 395.04,765.04 L 395.29,765.29 L 396.16,765.56 L 398.25,765.81 L 398.84,765.86 L 399.84,766.03 L 400.30,766.13 L 401.01,766.40 L 401.33,766.55 L 401.75,766.90 L 402.00,767.50 L 402.00,767.72 L 401.75,768.10 L 401.58,768.29 L 401.01,768.60 L 400.69,768.74 L 399.84,768.97 L 398.25,769.19 L 397.34,769.27 L 396.12,769.44 L 395.60,769.56 L 395.00,770.00 L 394.76,770.27 L 394.57,771.22 L 394.50,773.50 L 394.50,777.50 L 399.25,777.80 L 400.14,777.86 L 401.52,778.03 L 402.15,778.12 L 403.03,778.34 L 403.40,778.45 L 403.79,778.70 L 403.93,778.82 L 403.84,779.07 L 403.75,779.20 L 403.21,779.43 L 402.89,779.54 L 401.93,779.72 L 401.39,779.81 L 400.01,779.92 L 397.50,780.00 L 391.00,780.00 L 391.00,767.45 M 417.22,767.75 L 417.25,766.28 L 417.32,763.85 L 417.35,762.72 L 417.42,760.88 L 417.46,760.03 L 417.57,758.70 L 417.62,758.09 L 417.77,757.18 L 417.85,756.77 L 418.06,756.20 L 418.17,755.95 L 418.45,755.63 L 419.69,755.19 L 420.27,755.11 L 421.15,755.35 L 421.36,755.47 L 421.74,755.90 L 421.93,756.16 L 422.30,756.91 L 422.48,757.34 L 422.87,758.49 L 423.07,759.12 L 423.50,760.73 L 423.72,761.60 L 424.24,763.76 L 425.13,767.67 L 425.29,768.40 L 425.65,769.74 L 425.83,770.38 L 426.19,771.43 L 426.36,771.92 L 426.68,772.58 L 427.06,773.00 L 427.16,773.00 L 427.44,772.59 L 427.59,772.32 L 427.93,771.46 L 428.11,770.98 L 428.47,769.79 L 428.99,767.75 L 429.36,766.17 L 429.95,763.56 L 430.24,762.34 L 430.71,760.40 L 430.94,759.50 L 431.33,758.12 L 431.51,757.50 L 431.86,756.60 L 432.03,756.20 L 432.36,755.68 L 432.53,755.46 L 432.90,755.23 L 434.31,755.19 L 434.83,755.26 L 435.54,755.62 L 435.70,755.76 L 435.94,756.20 L 436.06,756.45 L 436.23,757.17 L 436.31,757.58 L 436.43,758.69 L 436.49,759.30 L 436.58,760.87 L 436.62,761.72 L 436.68,763.85 L 436.78,767.75 L 436.81,769.06 L 436.85,771.28 L 436.86,772.33 L 436.87,774.07 L 436.87,774.89 L 436.84,776.22 L 436.81,776.84 L 436.74,777.80 L 436.69,778.23 L 436.56,778.88 L 436.49,779.17 L 436.31,779.56 L 435.53,780.00 L 435.22,780.00 L 434.77,779.68 L 434.57,779.45 L 434.30,778.53 L 434.19,777.97 L 434.07,776.23 L 434.04,775.74 L 434.01,774.56 L 434.00,772.50 L 434.00,771.47 L 433.94,769.59 L 433.89,768.69 L 433.76,767.20 L 433.69,766.52 L 433.50,765.59 L 433.18,765.00 L 433.07,765.00 L 432.73,765.59 L 432.54,765.97 L 432.09,767.20 L 431.85,767.88 L 431.35,769.59 L 430.60,772.50 L 430.25,773.99 L 429.65,776.19 L 429.36,777.17 L 428.82,778.49 L 428.54,779.05 L 427.98,779.67 L 427.00,780.00 L 426.55,780.00 L 425.78,779.43 L 425.59,779.23 L 425.23,778.65 L 425.05,778.32 L 424.70,777.47 L 424.52,777.00 L 424.15,775.83 L 423.97,775.21 L 423.59,773.70 L 423.40,772.91 L 422.98,771.03 L 422.31,767.75 L 422.18,767.09 L 421.92,766.13 L 421.78,765.71 L 421.51,765.21 L 421.38,765.02 L 421.12,764.97 L 421.00,764.99 L 420.77,765.35 L 420.65,765.58 L 420.46,766.33 L 420.36,766.76 L 420.22,767.88 L 420.15,768.48 L 420.06,769.94 L 420.00,772.50 L 420.00,773.26 L 419.99,774.56 L 419.97,775.18 L 419.93,776.23 L 419.89,777.22 L 419.70,778.53 L 419.59,779.08 L 419.23,779.68 L 418.47,780.00 L 418.14,780.00 L 417.69,779.56 L 417.59,779.39 L 417.44,778.88 L 417.37,778.59 L 417.26,777.80 L 417.22,777.36 L 417.16,776.22 L 417.14,775.60 L 417.13,774.07 L 417.13,773.26 L 417.15,771.28 L 417.17,770.23 M 442.02,778.25 L 442.02,778.13 L 442.08,777.68 L 442.12,777.43 L 442.24,776.74 L 442.38,776.00 L 442.84,773.93 L 443.09,772.82 L 443.72,770.22 L 444.79,766.00 L 445.11,764.78 L 445.66,762.75 L 445.92,761.79 L 446.37,760.24 L 446.59,759.52 L 446.97,758.39 L 447.16,757.87 L 447.51,757.09 L 447.86,756.39 L 448.60,755.77 L 450.03,755.50 L 450.60,755.50 L 451.46,755.77 L 451.65,755.88 L 452.01,756.26 L 452.19,756.49 L 452.53,757.14 L 452.71,757.50 L 453.07,758.49 L 453.25,759.04 L 453.66,760.43 L 453.87,761.19 L 454.36,763.07 L 455.21,766.50 L 455.59,768.01 L 456.27,770.87 L 456.60,772.25 L 457.14,774.64 L 457.39,775.75 L 457.74,777.40 L 457.81,777.75 L 457.90,778.27 L 457.97,778.75 L 457.98,779.32 L 457.51,779.87 L 457.22,780.06 L 456.37,779.93 L 455.93,779.79 L 455.04,779.09 L 454.00,777.50 L 453.81,777.00 L 453.38,776.26 L 453.14,775.93 L 452.54,775.50 L 452.21,775.31 L 451.32,775.11 L 449.54,775.00 L 448.82,775.00 L 447.75,775.10 L 447.26,775.17 L 446.58,775.47 L 446.28,775.66 L 445.87,776.24 L 445.41,777.50 L 445.23,778.21 L 444.58,779.19 L 444.22,779.60 L 443.44,779.94 L 443.06,780.03 L 442.44,779.66 L 442.18,779.38 M 452.40,772.16 L 452.46,772.06 L 452.51,771.64 L 452.52,771.40 L 452.47,770.74 L 452.41,770.02 L 452.05,768.11 L 451.84,767.11 L 451.28,764.97 L 450.31,762.00 L 450.22,761.77 L 449.95,761.77 L 449.80,761.85 L 449.42,762.41 L 449.22,762.76 L 448.76,763.84 L 448.02,766.00 L 447.79,766.76 L 447.39,768.19 L 447.21,768.89 L 446.93,770.10 L 446.81,770.67 L 446.69,771.52 L 446.72,772.25 L 446.85,772.51 L 447.75,772.81 L 448.25,772.94 L 449.52,772.98 L 450.16,772.97 L 451.32,772.76 L 451.84,772.62 M 463.00,767.38 L 463.00,754.75 L 468.65,755.22 L 469.64,755.30 L 471.28,755.54 L 472.05,755.67 L 473.28,756.02 L 473.85,756.20 L 474.71,756.68 L 475.65,757.54 L 476.10,758.16 L 476.65,759.70 L 476.87,760.50 L 476.94,762.19 L 476.92,763.03 L 476.53,764.58 L 475.43,766.43 L 475.07,766.79 L 474.62,767.32 L 474.45,767.57 L 474.36,768.00 L 474.36,768.21 L 474.62,768.68 L 475.43,769.57 L 475.67,769.81 L 476.08,770.54 L 476.27,770.94 L 476.58,771.93 L 477.00,775.64 L 477.00,776.58 L 476.93,777.92 L 476.88,778.50 L 476.67,779.24 L 476.54,779.54 L 476.14,779.81 L 475.25,779.81 L 474.94,779.75 L 474.42,779.42 L 474.18,779.21 L 473.79,778.54 L 473.61,778.16 L 473.33,777.12 L 473.00,775.09 L 472.91,774.28 L 472.66,773.00 L 472.52,772.41 L 472.16,771.52 L 471.96,771.12 L 471.46,770.55 L 470.50,769.98 L 469.63,769.68 L 468.33,769.54 L 467.75,769.56 L 466.95,770.14 L 466.60,770.54 L 466.22,771.95 L 466.00,775.11 L 466.00,776.03 L 465.92,777.43 L 465.87,778.06 L 465.67,778.93 L 465.56,779.32 L 465.21,779.75 L 464.50,780.00 L 464.19,780.00 L 463.74,779.51 L 463.64,779.33 L 463.47,778.79 L 463.40,778.48 L 463.28,777.65 L 463.23,777.19 L 463.14,776.01 L 463.11,775.37 L 463.06,773.80 L 463.04,772.96 L 463.01,770.95 L 463.00,769.88 M 472.50,762.50 L 472.50,761.55 L 472.42,760.27 L 472.36,759.71 L 472.03,759.04 L 471.81,758.75 L 471.05,758.45 L 469.25,758.19 L 468.46,758.11 L 467.41,758.08 L 466.95,758.11 L 466.44,758.44 L 466.23,758.67 L 466.06,759.57 L 466.00,761.77 L 466.00,762.93 L 466.15,764.57 L 466.26,765.29 L 466.72,766.17 L 467.01,766.53 L 467.93,766.83 L 469.96,766.80 L 470.52,766.73 L 471.31,766.51 L 471.65,766.37 L 472.07,765.88 L 472.25,765.58 L 472.42,764.63 L 472.48,764.08 M 491.00,767.38 L 491.00,754.75 L 496.55,755.21 L 498.17,755.35 L 500.99,756.00 L 501.63,756.18 L 502.65,756.60 L 503.71,757.29 L 503.94,757.52 L 504.36,758.29 L 504.56,758.72 L 504.92,759.83 L 505.26,761.01 L 505.71,764.03 L 505.89,765.60 L 505.97,768.90 L 505.58,773.42 L 505.34,774.72 L 504.62,776.65 L 504.21,777.51 L 502.99,778.66 L 502.30,779.16 L 500.37,779.70 L 499.83,779.81 L 498.58,779.93 L 496.43,780.00 L 491.00,780.00 L 491.00,767.38 M 500.80,776.80 L 500.97,776.63 L 501.26,775.73 L 501.40,775.21 L 501.62,773.76 L 501.72,772.98 L 501.86,771.16 L 501.92,770.23 L 501.97,768.25 L 502.01,766.26 L 501.82,762.61 L 501.75,761.78 L 501.55,760.47 L 501.13,759.17 L 500.89,758.79 L 499.70,758.32 L 497.39,758.17 L 494.50,758.50 L 494.19,766.88 L 494.15,768.03 L 494.11,770.24 L 494.10,771.31 L 494.13,773.20 L 494.15,774.08 L 494.23,775.44 L 494.41,776.63 L 494.57,777.05 L 495.45,777.60 L 495.96,777.82 L 497.24,777.96 L 497.89,777.98 L 499.21,777.70 L 499.83,777.51 M 510.22,767.75 L 510.50,755.50 L 516.75,755.20 L 518.03,755.14 L 519.88,755.12 L 520.70,755.12 L 521.79,755.26 L 522.25,755.35 L 522.74,755.69 L 523.00,756.45 L 523.00,756.74 L 522.77,757.19 L 522.62,757.39 L 522.02,757.66 L 521.67,757.78 L 520.64,757.92 L 518.50,758.00 L 514.00,758.00 L 514.00,762.00 L 514.00,762.98 L 514.07,764.27 L 514.13,764.83 L 514.47,765.46 L 514.69,765.72 L 515.51,765.92 L 517.50,766.00 L 518.11,766.00 L 519.08,766.09 L 519.52,766.15 L 520.17,766.36 L 520.45,766.48 L 520.80,766.82 L 521.00,767.50 L 521.00,767.76 L 520.80,768.18 L 520.66,768.37 L 520.16,768.64 L 519.87,768.77 L 519.05,768.91 L 517.44,769.00 L 513.89,769.00 L 514.19,773.25 L 514.27,774.31 L 514.44,775.70 L 514.55,776.30 L 515.00,777.00 L 515.29,777.29 L 516.30,777.56 L 518.75,777.81 L 519.59,777.87 L 520.88,778.04 L 521.46,778.13 L 522.24,778.36 L 522.58,778.47 L 522.89,778.71 L 522.98,778.84 L 522.84,779.09 L 522.71,779.21 L 522.14,779.43 L 521.80,779.54 L 520.82,779.73 L 520.28,779.81 L 518.92,779.93 L 516.47,780.00 L 509.94,780.00 L 510.22,767.75 M 528.00,767.43 L 528.00,766.00 L 528.01,763.60 L 528.02,762.48 L 528.05,760.65 L 528.07,759.79 L 528.13,758.45 L 528.17,757.83 L 528.28,756.90 L 528.34,756.49 L 528.50,755.91 L 528.58,755.66 L 528.80,755.37 L 529.75,755.19 L 530.13,755.27 L 530.67,755.74 L 530.91,756.06 L 531.22,757.36 L 531.28,757.76 L 531.38,758.79 L 531.42,759.34 L 531.48,760.73 L 531.51,761.48 L 531.55,763.28 L 531.59,766.52 L 531.68,777.50 L 536.36,777.81 L 537.20,777.86 L 538.47,778.02 L 539.04,778.11 L 539.80,778.33 L 540.12,778.45 L 540.41,778.69 L 540.49,778.82 L 540.33,779.07 L 540.19,779.19 L 539.60,779.42 L 539.26,779.53 L 538.27,779.72 L 537.73,779.80 L 536.37,779.92 L 533.94,780.00 L 528.00,780.00 L 528.00,767.43 M 553.81,779.25 L 553.79,779.20 L 553.75,778.86 L 553.73,778.66 L 553.69,778.05 L 553.65,777.38 L 553.59,775.34 L 553.56,774.23 L 553.52,771.52 L 553.50,767.00 L 553.50,755.50 L 558.64,755.54 L 559.48,755.54 L 560.94,755.63 L 561.63,755.68 L 562.79,755.88 L 563.34,756.00 L 564.25,756.34 L 564.68,756.54 L 565.35,757.05 L 565.66,757.32 L 566.13,758.02 L 566.35,758.40 L 566.64,759.32 L 566.77,759.81 L 566.92,760.97 L 567.00,763.00 L 567.00,764.36 L 566.76,766.34 L 566.58,767.23 L 565.85,768.44 L 565.41,768.97 L 564.02,769.61 L 561.00,770.17 L 560.14,770.25 L 559.01,770.45 L 558.51,770.58 L 557.93,771.09 L 557.69,771.42 L 557.44,772.55 L 557.20,775.25 L 557.14,776.06 L 556.98,777.36 L 556.88,777.95 L 556.63,778.84 L 556.49,779.23 L 556.14,779.71 L 555.50,780.00 L 555.12,780.00 L 554.43,779.78 L 554.13,779.64 M 562.95,766.57 L 563.11,766.37 L 563.38,765.75 L 563.51,765.41 L 563.69,764.58 L 563.82,761.82 L 563.75,761.08 L 563.55,760.05 L 563.42,759.60 L 563.01,759.01 L 562.76,758.75 L 561.98,758.46 L 560.25,758.19 L 557.00,757.87 L 557.00,762.94 L 557.00,764.10 L 557.06,765.70 L 557.12,766.39 L 557.37,767.22 L 557.53,767.56 L 558.08,767.86 L 559.38,768.00 L 560.03,768.00 L 561.41,767.58 L 562.05,767.32 M 571.99,779.75 L 571.87,777.40 L 571.70,773.28 L 571.62,771.32 L 571.53,767.94 L 571.50,766.34 L 571.51,763.65 L 571.52,762.38 L 571.62,760.32 L 571.68,759.36 L 571.88,757.87 L 571.99,757.19 L 572.29,756.22 L 572.46,755.80 L 572.86,755.29 L 573.59,755.00 L 573.85,755.00 L 574.25,755.55 L 574.43,755.93 L 574.71,757.40 L 574.77,757.83 L 574.88,758.91 L 574.93,759.48 L 575.02,760.86 L 575.06,761.59 L 575.13,763.30 L 575.22,766.25 L 575.50,777.50 L 579.75,777.81 L 580.56,777.87 L 581.81,778.04 L 582.37,778.13 L 583.16,778.35 L 583.50,778.46 L 583.83,778.71 L 583.95,778.83 L 583.86,779.08 L 583.76,779.20 L 583.26,779.43 L 582.95,779.54 L 582.06,779.72 L 581.57,779.81 L 580.30,779.92 L 578.00,780.00 L 577.17,780.00 L 575.67,779.98 L 574.95,779.97 L 573.76,779.93 L 573.21,779.90 L 572.47,779.85 L 572.16,779.82 M 588.03,778.75 L 588.04,778.66 L 588.10,778.27 L 588.14,778.05 L 588.26,777.40 L 588.40,776.69 L 588.86,774.64 L 589.11,773.53 L 589.73,770.88 L 590.78,766.51 L 591.05,765.43 L 591.53,763.55 L 591.77,762.66 L 592.20,761.13 L 592.40,760.41 L 592.79,759.20 L 592.97,758.63 L 593.32,757.70 L 593.67,756.84 L 594.33,755.84 L 595.36,755.17 L 595.87,755.07 L 596.95,755.20 L 598.16,755.76 L 598.28,755.88 L 598.69,756.89 L 598.92,757.49 L 599.48,759.27 L 599.78,760.23 L 600.42,762.52 L 600.75,763.70 L 601.42,766.24 L 601.75,767.52 L 602.38,770.07 L 602.68,771.31 L 603.19,773.60 L 603.42,774.69 L 603.75,776.46 L 603.97,778.25 L 603.98,778.92 L 603.56,779.66 L 603.30,779.94 L 602.56,779.94 L 602.18,779.86 L 601.42,779.19 L 600.59,777.50 L 600.46,776.98 L 600.13,776.24 L 599.95,775.90 L 599.42,775.47 L 599.12,775.29 L 598.26,775.10 L 596.46,775.00 L 595.77,775.00 L 594.69,775.11 L 594.20,775.19 L 593.44,775.51 L 593.09,775.70 L 592.53,776.28 L 591.82,777.50 L 591.52,778.15 L 590.72,779.10 L 590.31,779.51 L 589.46,779.92 L 589.06,780.06 L 588.43,779.85 L 588.17,779.66 M 598.55,769.39 L 598.36,768.40 L 597.76,766.07 L 596.83,763.14 L 596.59,762.52 L 596.24,761.74 L 596.08,761.41 L 595.83,761.19 L 595.71,761.15 L 595.47,761.46 L 595.02,762.50 L 594.92,762.77 L 594.67,763.61 L 594.54,764.07 L 594.27,765.16 L 593.54,768.75 L 592.82,773.00 L 596.02,773.00 L 596.81,773.00 L 597.83,772.93 L 598.27,772.87 L 598.71,772.52 L 598.87,772.29 L 598.87,771.45 L 598.83,770.94 M 612.00,769.14 L 612.00,758.13 L 609.25,757.82 L 608.49,757.73 L 607.38,757.30 L 607.15,757.18 L 606.87,756.91 L 606.75,756.50 L 606.80,756.32 L 607.43,756.03 L 607.83,755.90 L 609.02,755.71 L 609.66,755.63 L 611.20,755.53 L 612.00,755.50 L 613.69,755.50 L 614.54,755.51 L 616.19,755.60 L 616.98,755.65 L 618.39,755.83 L 619.04,755.93 L 620.00,756.19 L 620.73,756.68 L 620.78,756.84 L 620.68,757.17 L 620.59,757.32 L 620.24,757.61 L 618.45,758.18 L 615.79,758.50 L 615.64,768.98 L 615.63,770.12 L 615.59,772.06 L 615.57,772.97 L 615.51,774.48 L 615.48,775.19 L 615.39,776.34 L 615.34,776.87 L 615.22,777.71 L 615.09,778.47 L 614.67,779.28 L 613.75,779.81 L 613.35,779.88 L 612.81,779.67 L 612.69,779.56 L 612.50,779.19 L 612.41,778.97 L 612.28,778.32 L 612.22,777.95 L 612.14,776.97 L 612.10,776.43 L 612.05,775.05 L 612.03,774.30 L 612.01,772.47 L 612.00,771.49 M 623.10,778.25 L 623.11,778.13 L 623.17,777.68 L 623.22,777.43 L 623.35,776.74 L 623.49,776.00 L 623.95,773.93 L 624.20,772.82 L 624.81,770.22 L 625.85,766.00 L 626.16,764.77 L 626.69,762.73 L 626.94,761.77 L 627.37,760.21 L 627.58,759.49 L 627.95,758.36 L 628.13,757.84 L 628.48,757.07 L 628.82,756.37 L 629.56,755.76 L 631.00,755.50 L 631.58,755.50 L 632.44,755.76 L 632.84,755.98 L 633.52,757.07 L 633.70,757.42 L 634.05,758.36 L 634.23,758.88 L 634.64,760.22 L 634.84,760.94 L 635.32,762.73 L 636.17,766.00 L 636.53,767.44 L 637.21,770.22 L 637.53,771.56 L 638.07,773.93 L 638.32,775.04 L 638.67,776.74 L 638.75,777.11 L 638.84,777.68 L 638.92,778.25 L 638.95,778.93 L 638.52,779.68 L 638.25,779.95 L 637.47,779.94 L 637.07,779.85 L 636.27,779.16 L 635.40,777.45 L 635.26,776.89 L 634.94,776.12 L 634.76,775.78 L 634.24,775.39 L 633.94,775.23 L 633.05,775.12 L 631.13,775.20 L 630.47,775.25 L 629.40,775.46 L 628.90,775.58 L 628.10,775.94 L 627.73,776.15 L 627.17,776.69 L 626.51,777.75 L 626.22,778.42 L 625.47,779.30 L 625.08,779.67 L 624.32,779.94 L 623.95,779.99 L 623.41,779.60 L 623.19,779.33 M 633.62,770.75 L 633.53,770.44 L 633.33,769.58 L 633.22,769.12 L 633.00,768.06 L 632.37,764.75 L 632.24,763.97 L 631.96,762.77 L 631.81,762.23 L 631.50,761.50 L 631.34,761.20 L 631.01,760.94 L 630.84,760.87 L 630.50,761.07 L 630.33,761.23 L 629.98,761.89 L 629.81,762.28 L 629.46,763.39 L 629.29,764.00 L 628.95,765.55 L 628.47,768.37 L 627.77,773.00 L 631.00,773.00 L 631.72,773.00 L 632.70,772.93 L 633.12,772.87 L 633.59,772.62 L 633.77,772.47 L 633.84,771.94 L 633.84,771.64 M 146.23,752.82 L 146.37,752.40 L 147.03,751.60 L 147.40,751.22 L 148.31,750.61 L 148.78,750.34 L 149.66,750.09 L 150.63,750.30 L 150.83,750.50 L 150.57,751.24 L 149.43,752.48 L 148.84,752.92 L 147.86,753.51 L 147.41,753.74 L 146.75,753.91 L 146.46,753.94 L 146.17,753.69 L 146.08,753.51 M 265.23,752.82 L 265.37,752.40 L 266.03,751.60 L 266.40,751.22 L 267.31,750.61 L 267.78,750.34 L 268.66,750.09 L 269.63,750.30 L 269.83,750.50 L 269.57,751.24 L 268.43,752.48 L 267.84,752.92 L 266.86,753.51 L 266.41,753.74 L 265.75,753.91 L 265.46,753.94 L 265.17,753.69 L 265.08,753.51 M 120.24,738.94 L 118.75,738.65 L 115.88,737.82 L 114.46,737.38 L 111.72,736.25 L 110.38,735.66 L 107.82,734.26 L 106.57,733.53 L 104.21,731.88 L 103.07,731.03 L 100.95,729.15 L 99.92,728.19 L 98.07,726.10 L 97.18,725.03 L 95.63,722.76 L 93.66,719.18 L 93.39,718.60 L 92.96,717.49 L 92.75,716.91 L 92.42,715.41 L 92.34,714.98 L 92.21,713.98 L 92.14,713.44 L 92.02,712.16 L 91.97,711.48 L 91.87,709.87 L 91.83,709.01 L 91.74,707.00 L 91.71,705.94 L 91.64,703.48 L 91.61,702.18 L 91.55,699.19 L 91.53,697.62 L 91.48,694.05 L 91.46,692.18 L 91.42,687.96 L 91.40,685.76 L 91.37,680.83 L 91.35,678.27 L 91.32,672.56 L 91.30,669.61 L 91.27,663.07 L 91.22,652.25 L 90.94,590.00 L 105.47,590.00 L 120.00,590.00 L 120.06,648.75 L 120.06,652.70 L 120.07,659.89 L 120.07,663.36 L 120.09,669.65 L 120.10,672.69 L 120.12,678.14 L 120.14,680.77 L 120.18,685.45 L 120.20,687.71 L 120.27,691.69 L 120.30,693.59 L 120.39,696.93 L 120.44,698.53 L 120.56,701.29 L 120.62,702.60 L 120.78,704.85 L 120.86,705.92 L 121.06,707.72 L 121.16,708.57 L 121.41,709.99 L 121.53,710.65 L 121.83,711.75 L 121.98,712.27 L 122.33,713.11 L 122.70,713.90 L 123.62,714.99 L 125.32,716.41 L 125.80,716.76 L 127.06,717.34 L 127.74,717.61 L 129.32,718.02 L 130.96,718.39 L 134.73,718.61 L 136.61,718.64 L 140.19,718.17 L 141.03,718.01 L 142.53,717.55 L 144.38,716.67 L 145.08,716.21 L 146.24,715.34 L 146.78,714.87 L 147.64,713.58 L 147.84,713.21 L 148.19,712.29 L 148.35,711.80 L 148.64,710.59 L 148.78,709.95 L 149.01,708.38 L 149.12,707.55 L 149.31,705.57 L 149.40,704.52 L 149.54,702.04 L 149.61,700.73 L 149.71,697.70 L 149.76,696.11 L 149.83,692.45 L 149.87,690.54 L 149.92,686.19 L 149.94,683.92 L 149.97,678.81 L 149.98,676.16 L 149.99,670.23 L 150.00,667.15 L 150.00,660.32 L 150.00,649.00 L 150.00,589.94 L 163.75,590.22 L 177.50,590.50 L 177.50,651.50 L 177.50,712.50 L 175.12,718.41 L 174.58,719.75 L 173.24,722.27 L 172.53,723.50 L 170.87,725.79 L 170.00,726.91 L 168.03,728.96 L 167.01,729.96 L 164.74,731.76 L 163.57,732.62 L 161.02,734.17 L 159.71,734.90 L 156.88,736.17 L 155.44,736.77 L 152.36,737.76 L 147.46,738.92 L 146.63,739.08 L 144.62,739.33 L 143.58,739.45 L 141.26,739.62 L 138.88,739.78 L 133.68,739.86 L 131.08,739.86 L 126.18,739.63 L 125.02,739.55 L 122.92,739.34 L 121.92,739.23 M 197.24,664.28 L 197.50,590.50 L 215.83,590.50 L 234.15,590.50 L 248.33,632.75 L 249.30,635.65 L 251.19,641.23 L 252.12,643.98 L 253.89,649.15 L 254.75,651.67 L 256.36,656.32 L 257.15,658.57 L 258.56,662.58 L 259.23,664.50 L 260.40,667.75 L 260.95,669.28 L 261.84,671.66 L 262.04,672.20 L 262.39,673.09 L 262.55,673.50 L 262.81,674.13 L 262.93,674.42 L 263.10,674.78 L 263.25,675.00 L 263.28,675.00 L 263.33,674.78 L 263.35,674.63 L 263.40,674.13 L 263.45,673.56 L 263.54,671.64 L 263.59,670.56 L 263.67,667.71 L 263.71,666.18 L 263.78,662.51 L 263.81,660.58 L 263.87,656.21 L 263.90,653.94 L 263.94,648.98 L 263.96,646.44 L 263.98,641.01 L 264.00,632.47 L 264.00,589.94 L 276.75,590.22 L 289.50,590.50 L 289.76,664.25 L 290.01,738.00 L 275.04,738.00 L 273.38,738.00 L 270.59,737.99 L 269.27,737.98 L 267.08,737.94 L 266.06,737.92 L 264.41,737.85 L 263.64,737.82 L 262.44,737.71 L 261.89,737.65 L 261.05,737.48 L 260.68,737.40 L 260.13,737.18 L 259.19,736.25 L 259.16,736.19 L 259.02,735.82 L 258.93,735.59 L 258.68,734.90 L 258.54,734.52 L 258.19,733.53 L 258.01,733.00 L 257.56,731.72 L 257.33,731.05 L 256.79,729.51 L 256.52,728.71 L 255.90,726.92 L 255.26,725.07 L 253.77,720.69 L 252.99,718.41 L 251.24,713.26 L 250.34,710.60 L 248.38,704.82 L 247.38,701.86 L 245.26,695.58 L 241.96,685.75 L 240.84,682.40 L 238.66,675.96 L 237.59,672.79 L 235.55,666.82 L 234.55,663.91 L 232.70,658.54 L 231.80,655.95 L 230.18,651.32 L 229.40,649.11 L 228.06,645.36 L 227.74,644.48 L 227.17,642.91 L 226.90,642.15 L 226.41,640.85 L 226.18,640.23 L 225.79,639.20 L 225.60,638.72 L 225.31,637.99 L 225.17,637.67 L 224.98,637.25 L 224.81,637.00 L 224.79,637.00 L 224.73,637.26 L 224.70,637.43 L 224.65,638.03 L 224.62,638.36 L 224.57,639.27 L 224.54,639.76 L 224.48,640.97 L 224.46,641.60 L 224.40,643.09 L 224.38,643.86 L 224.33,645.61 L 224.27,647.42 L 224.18,651.76 L 224.13,654.04 L 224.04,659.21 L 224.00,661.88 L 223.92,667.74 L 223.89,670.74 L 223.83,677.16 L 223.76,687.25 L 223.50,737.50 L 210.24,737.78 L 196.99,738.06 L 197.24,664.28 M 310.24,664.25 L 310.50,590.50 L 330.65,590.23 L 350.79,589.96 L 352.38,597.23 L 352.49,597.73 L 352.83,599.35 L 353.02,600.26 L 353.51,602.62 L 353.77,603.88 L 354.39,606.86 L 354.71,608.42 L 355.43,611.91 L 355.80,613.71 L 356.60,617.62 L 357.00,619.61 L 357.86,623.81 L 360.54,637.00 L 361.44,641.47 L 363.25,650.43 L 363.70,652.63 L 364.56,656.90 L 364.99,658.99 L 365.79,662.96 L 366.18,664.90 L 366.91,668.46 L 367.25,670.18 L 367.87,673.21 L 368.16,674.64 L 368.64,677.03 L 369.20,679.75 L 369.45,680.99 L 369.92,683.12 L 370.14,684.12 L 370.56,685.78 L 370.76,686.56 L 371.13,687.76 L 371.31,688.31 L 371.65,689.09 L 371.81,689.42 L 372.12,689.78 L 372.27,689.90 L 372.56,689.85 L 372.70,689.78 L 372.98,689.33 L 373.39,688.25 L 373.42,688.15 L 373.58,687.43 L 373.67,686.98 L 373.95,685.61 L 374.11,684.85 L 374.50,682.89 L 374.71,681.84 L 375.20,679.34 L 375.45,678.04 L 376.03,675.07 L 376.33,673.53 L 376.99,670.14 L 377.33,668.40 L 378.05,664.66 L 378.42,662.75 L 379.20,658.70 L 379.99,654.59 L 381.69,645.70 L 382.56,641.18 L 384.34,631.83 L 385.23,627.14 L 387.00,617.78 L 389.55,604.25 L 392.22,590.00 L 412.61,590.00 L 433.00,590.00 L 433.00,664.00 L 433.00,738.00 L 419.00,738.00 L 405.00,738.00 L 405.00,688.33 L 405.00,684.92 L 404.99,678.37 L 404.98,675.15 L 404.96,669.09 L 404.94,666.14 L 404.90,660.71 L 404.88,658.09 L 404.83,653.42 L 404.81,651.20 L 404.75,647.43 L 404.74,646.55 L 404.70,644.98 L 404.69,644.23 L 404.66,642.93 L 404.64,642.32 L 404.60,641.31 L 404.59,640.84 L 404.55,640.13 L 404.53,639.82 L 404.49,639.43 L 404.44,639.23 L 404.42,639.25 L 404.33,639.54 L 404.28,639.73 L 404.13,640.34 L 404.05,640.69 L 403.85,641.60 L 403.74,642.10 L 403.49,643.30 L 403.35,643.94 L 403.05,645.42 L 402.89,646.19 L 402.54,647.92 L 402.18,649.71 L 401.32,653.98 L 400.88,656.22 L 399.89,661.28 L 399.37,663.91 L 398.26,669.63 L 397.70,672.57 L 396.50,678.82 L 394.63,688.65 L 385.39,737.50 L 371.39,737.78 L 357.40,738.05 L 348.16,693.28 L 347.53,690.20 L 346.29,684.21 L 345.69,681.25 L 344.53,675.59 L 343.96,672.82 L 342.90,667.64 L 342.39,665.13 L 341.46,660.55 L 341.02,658.35 L 340.25,654.52 L 339.88,652.70 L 339.29,649.74 L 339.16,649.06 L 338.92,647.88 L 338.82,647.33 L 338.64,646.42 L 338.56,646.00 L 338.44,645.36 L 338.33,644.75 L 338.22,644.07 L 338.02,642.98 L 337.92,642.48 L 337.74,641.75 L 337.65,641.44 L 337.48,641.08 L 337.40,640.95 L 337.24,640.99 L 337.17,641.05 L 337.03,641.47 L 336.96,641.74 L 336.84,642.56 L 336.78,643.03 L 336.67,644.26 L 336.62,644.94 L 336.52,646.59 L 336.47,647.48 L 336.39,649.56 L 336.35,650.66 L 336.28,653.19 L 336.25,654.51 L 336.19,657.49 L 336.17,659.03 L 336.12,662.47 L 336.10,664.24 L 336.07,668.14 L 336.05,670.15 L 336.03,674.53 L 336.02,676.78 L 336.01,681.65 L 336.00,689.50 L 336.00,738.00 L 322.99,738.00 L 309.99,738.00 L 310.24,664.25 M 447.06,735.75 L 447.06,735.67 L 447.14,735.15 L 447.19,734.83 L 447.36,733.84 L 447.46,733.29 L 447.72,731.85 L 447.86,731.08 L 448.20,729.23 L 448.38,728.26 L 448.81,726.02 L 449.03,724.85 L 449.53,722.24 L 449.78,720.89 L 450.35,717.94 L 450.64,716.43 L 451.28,713.16 L 451.60,711.49 L 452.29,707.93 L 452.64,706.11 L 453.39,702.29 L 454.15,698.40 L 455.81,689.94 L 456.67,685.61 L 458.48,676.41 L 461.34,662.00 L 475.57,590.50 L 496.81,590.23 L 498.87,590.20 L 502.45,590.17 L 504.16,590.16 L 507.09,590.16 L 508.48,590.16 L 510.81,590.20 L 511.91,590.22 L 513.70,590.28 L 514.53,590.32 L 515.83,590.43 L 516.42,590.48 L 517.29,590.63 L 517.67,590.71 L 518.16,590.90 L 518.52,591.23 L 518.54,591.28 L 518.65,591.77 L 518.72,592.09 L 518.94,593.10 L 519.06,593.66 L 519.37,595.15 L 519.54,595.94 L 519.94,597.87 L 520.15,598.89 L 520.63,601.22 L 520.88,602.43 L 521.44,605.14 L 521.73,606.54 L 522.35,609.58 L 522.67,611.14 L 523.35,614.49 L 524.05,617.90 L 525.59,625.50 L 526.39,629.40 L 528.08,637.75 L 528.94,642.00 L 530.73,650.84 L 531.63,655.29 L 533.46,664.33 L 534.37,668.86 L 536.18,677.83 L 537.08,682.28 L 538.81,690.91 L 539.67,695.15 L 541.27,703.15 L 542.05,707.04 L 543.47,714.14 L 543.81,715.84 L 544.45,719.03 L 544.76,720.59 L 545.33,723.46 L 545.60,724.85 L 546.10,727.37 L 546.34,728.58 L 546.76,730.70 L 546.95,731.71 L 547.28,733.41 L 547.44,734.20 L 547.67,735.44 L 547.78,736.00 L 547.92,736.74 L 548.00,737.26 L 548.00,737.32 L 547.70,737.42 L 547.50,737.46 L 546.84,737.55 L 546.47,737.59 L 545.48,737.66 L 544.95,737.69 L 543.68,737.74 L 542.35,737.79 L 539.00,737.82 L 533.29,737.78 L 518.58,737.50 L 516.23,725.02 L 515.90,723.30 L 515.27,720.14 L 514.97,718.62 L 514.42,716.06 L 514.17,714.89 L 513.77,713.23 L 513.68,712.89 L 513.54,712.41 L 513.39,712.06 L 513.36,712.03 L 512.95,711.96 L 512.70,711.93 L 511.87,711.85 L 511.41,711.82 L 510.23,711.75 L 509.59,711.71 L 508.08,711.64 L 506.51,711.58 L 502.60,711.45 L 495.98,711.31 L 494.08,711.28 L 490.88,711.24 L 489.37,711.22 L 486.89,711.21 L 485.73,711.22 L 483.87,711.25 L 483.01,711.28 L 481.67,711.36 L 481.05,711.41 L 480.14,711.56 L 479.73,711.64 L 479.14,711.85 L 478.16,712.77 L 478.04,713.01 L 477.68,714.23 L 477.49,714.94 L 477.03,716.93 L 476.79,717.99 L 476.29,720.48 L 475.56,724.50 L 475.32,725.88 L 474.85,728.52 L 474.63,729.81 L 474.21,732.08 L 474.01,733.14 L 473.68,734.78 L 473.36,736.25 L 473.25,736.64 L 472.69,737.18 L 472.50,737.30 L 471.94,737.49 L 471.63,737.57 L 470.78,737.71 L 470.31,737.77 L 469.10,737.86 L 468.45,737.89 L 466.80,737.94 L 465.92,737.97 L 463.78,737.99 L 459.93,738.00 L 458.34,738.00 L 455.71,737.99 L 454.49,737.99 L 452.53,737.96 L 451.62,737.94 L 450.24,737.87 L 449.60,737.83 L 448.69,737.71 L 448.28,737.64 L 447.74,737.44 L 447.51,737.33 L 447.25,737.04 L 447.04,736.72 M 509.17,690.50 L 509.20,690.46 L 509.14,689.72 L 509.09,689.24 L 508.86,687.68 L 508.73,686.81 L 508.37,684.52 L 508.16,683.29 L 507.67,680.38 L 507.40,678.85 L 506.79,675.39 L 506.47,673.60 L 505.76,669.70 L 505.40,667.70 L 504.61,663.44 L 503.35,656.75 L 502.91,654.46 L 502.08,650.01 L 501.67,647.82 L 500.89,643.62 L 500.52,641.56 L 499.82,637.72 L 499.48,635.85 L 498.88,632.46 L 498.59,630.83 L 498.10,627.98 L 497.88,626.64 L 497.52,624.44 L 497.36,623.43 L 497.15,621.98 L 497.01,620.75 L 497.01,619.99 L 496.69,618.81 L 496.59,618.56 L 496.35,618.22 L 495.93,618.00 L 495.63,618.00 L 495.35,618.56 L 495.49,619.96 L 495.66,620.50 L 495.65,621.88 L 495.15,623.72 L 495.10,623.81 L 494.88,624.68 L 494.75,625.21 L 494.37,626.89 L 494.16,627.82 L 493.66,630.19 L 493.39,631.45 L 492.78,634.40 L 492.46,635.93 L 491.77,639.33 L 491.41,641.07 L 490.66,644.80 L 489.89,648.60 L 488.29,656.69 L 487.49,660.74 L 485.96,668.62 L 485.59,670.53 L 484.90,674.16 L 484.56,675.92 L 483.95,679.17 L 483.66,680.73 L 483.15,683.48 L 482.91,684.78 L 482.53,686.91 L 482.36,687.88 L 482.14,689.28 L 482.00,690.41 L 482.00,690.45 L 482.30,690.54 L 482.49,690.58 L 483.14,690.65 L 483.50,690.68 L 484.45,690.74 L 484.95,690.77 L 486.14,690.82 L 487.39,690.87 L 490.41,690.94 L 491.97,690.97 L 495.32,690.99 L 496.99,690.99 L 500.26,690.97 L 501.84,690.95 L 504.62,690.89 L 505.91,690.85 L 507.80,690.73 L 508.19,690.70 L 508.75,690.62 L 508.98,690.58 M 562.00,664.00 L 562.00,590.00 L 588.75,590.02 L 590.52,590.02 L 593.82,590.03 L 595.44,590.04 L 598.45,590.07 L 599.92,590.09 L 602.66,590.13 L 604.00,590.16 L 606.48,590.23 L 608.90,590.30 L 613.07,590.52 L 615.05,590.64 L 618.46,590.97 L 620.08,591.15 L 622.88,591.60 L 624.22,591.85 L 626.58,592.45 L 627.72,592.77 L 629.80,593.53 L 632.76,594.88 L 634.35,595.69 L 637.05,597.41 L 638.32,598.30 L 640.49,600.27 L 641.53,601.30 L 643.31,603.66 L 645.70,607.80 L 646.38,609.18 L 647.28,611.34 L 647.67,612.42 L 648.12,614.91 L 648.21,615.61 L 648.33,617.28 L 648.38,618.17 L 648.44,620.35 L 648.47,621.51 L 648.49,624.34 L 648.50,629.50 L 648.50,631.32 L 648.49,634.40 L 648.48,635.86 L 648.44,638.29 L 648.41,639.44 L 648.32,641.35 L 648.28,642.25 L 648.14,643.76 L 647.98,645.19 L 647.44,647.35 L 646.20,650.50 L 645.56,651.88 L 643.93,654.57 L 643.06,655.89 L 641.10,658.30 L 640.09,659.46 L 637.96,661.41 L 634.75,663.61 L 633.93,664.04 L 632.86,664.82 L 632.43,665.20 L 632.12,665.87 L 632.06,666.20 L 632.52,666.77 L 634.07,667.52 L 634.96,667.80 L 637.02,669.11 L 638.07,669.87 L 640.23,671.91 L 641.30,672.99 L 643.29,675.48 L 645.77,679.41 L 646.41,680.65 L 647.28,682.75 L 647.47,683.31 L 647.77,684.60 L 647.91,685.29 L 648.14,686.99 L 648.24,687.91 L 648.41,690.21 L 648.49,691.46 L 648.63,694.58 L 648.67,695.43 L 648.73,697.30 L 648.76,698.27 L 648.83,700.41 L 648.86,701.52 L 648.93,703.97 L 649.04,708.00 L 649.08,709.78 L 649.19,713.14 L 649.25,714.79 L 649.38,717.87 L 649.44,719.37 L 649.58,722.12 L 649.66,723.46 L 649.81,725.85 L 649.89,727.00 L 650.05,728.99 L 650.13,729.93 L 650.31,731.48 L 650.39,732.20 L 650.57,733.28 L 650.83,734.32 L 651.15,735.09 L 651.66,736.43 L 651.76,736.73 L 651.91,737.17 L 652.00,737.57 L 652.00,737.59 L 651.70,737.65 L 651.50,737.68 L 650.82,737.73 L 650.45,737.76 L 649.45,737.81 L 648.91,737.83 L 647.63,737.87 L 646.28,737.91 L 642.89,737.97 L 637.11,738.00 L 635.45,738.00 L 632.67,737.99 L 631.35,737.98 L 629.18,737.95 L 628.16,737.92 L 626.52,737.86 L 625.76,737.82 L 624.57,737.71 L 624.03,737.65 L 623.21,737.49 L 622.84,737.40 L 622.32,737.18 L 621.44,736.25 L 621.38,736.13 L 621.27,735.43 L 621.21,735.01 L 621.09,733.76 L 621.02,733.07 L 620.90,731.33 L 620.83,730.41 L 620.71,728.26 L 620.65,727.14 L 620.52,724.64 L 620.46,723.35 L 620.35,720.57 L 620.06,711.50 L 619.99,709.07 L 619.87,704.90 L 619.81,702.92 L 619.68,699.58 L 619.62,698.00 L 619.48,695.36 L 619.40,694.13 L 619.24,692.10 L 619.15,691.15 L 618.95,689.61 L 618.85,688.89 L 618.60,687.74 L 617.66,685.17 L 617.00,683.94 L 615.09,681.98 L 614.55,681.53 L 613.33,680.75 L 612.69,680.38 L 611.25,679.76 L 610.50,679.47 L 608.82,679.00 L 607.94,678.78 L 606.02,678.46 L 605.02,678.31 L 602.83,678.13 L 599.25,678.02 L 591.00,678.00 L 591.00,708.00 L 591.00,738.00 L 576.50,738.00 L 562.00,738.00 L 562.00,664.00 M 612.77,654.62 L 613.47,654.26 L 614.67,653.48 L 615.23,653.08 L 616.19,652.16 L 616.63,651.68 L 617.36,650.54 L 617.70,649.93 L 618.24,648.48 L 618.48,647.71 L 618.85,645.88 L 619.01,644.90 L 619.24,642.59 L 619.33,641.37 L 619.44,638.51 L 619.50,633.50 L 619.50,631.06 L 619.37,626.95 L 619.28,625.02 L 618.90,621.83 L 618.67,620.35 L 617.93,617.97 L 617.51,616.87 L 616.32,615.19 L 615.66,614.42 L 613.91,613.32 L 612.97,612.83 L 610.58,612.19 L 609.29,611.93 L 606.15,611.65 L 600.50,611.50 L 591.50,611.50 L 591.23,632.98 L 591.19,635.93 L 591.17,641.43 L 591.16,642.74 L 591.17,645.20 L 591.18,646.40 L 591.20,648.56 L 591.21,649.59 L 591.24,651.39 L 591.26,652.24 L 591.31,653.62 L 591.34,654.25 L 591.40,655.14 L 591.50,655.86 L 591.60,656.11 L 592.45,656.47 L 592.97,656.63 L 594.52,656.83 L 595.37,656.90 L 597.40,656.94 L 598.46,656.94 L 600.76,656.84 L 603.10,656.71 L 607.69,656.06 L 608.76,655.87 L 610.62,655.41 L 611.48,655.17 Z" fill="rgba(252,251,250,1)"/>
</g>
</svg>